<?xml version="1.0" encoding="utf-8"?>
<!-- Generator: Adobe Illustrator 20.1.0, SVG Export Plug-In . SVG Version: 6.00 Build 0)  -->
<svg version="1.1" id="Layer_1" xmlns="http://www.w3.org/2000/svg" xmlns:xlink="http://www.w3.org/1999/xlink" x="0px" y="0px"
	 viewBox="0 0 321.3 321.3" style="enable-background:new 0 0 321.3 321.3;" xml:space="preserve">
<style type="text/css">
	.st0{fill:url(#SVGID_1_);}
	.st1{fill:#58595B;}
	.st2{fill:#58595B;stroke:#808285;stroke-miterlimit:10;}
	.st3{fill:#939598;}
</style>
<g>
	<linearGradient id="SVGID_1_" gradientUnits="userSpaceOnUse" x1="227.2155" y1="93.6962" x2="88.1576" y2="232.7541">
		<stop  offset="0.1632" style="stop-color:#2BB673"/>
		<stop  offset="0.8586" style="stop-color:#00A79D"/>
	</linearGradient>
	<path class="st0" d="M160.5,321L-0.1,160.4L160.5-0.3l160.6,160.6L160.5,321z M42.3,160.4l118.2,118.2l118.2-118.2L160.5,42.2
		L42.3,160.4z"/>
</g>
<g>
	<path class="st1" d="M128.9,112.1h21.6v4.2l-14.1,26.8h-6l14.1-26.5h-15.5V112.1z"/>
	<path class="st1" d="M156.9,128.2c-1.4-1.6-2.1-4-2.1-7.1c0-3.1,0.7-5.4,2.1-7c1.4-1.6,3.3-2.4,5.8-2.4c2.5,0,4.4,0.8,5.8,2.4
		c1.4,1.6,2.1,4,2.1,7c0,3.1-0.7,5.5-2.1,7.1c-1.4,1.6-3.3,2.4-5.8,2.4C160.2,130.6,158.3,129.8,156.9,128.2z M165.1,125.7
		c0.5-0.9,0.8-2.4,0.8-4.6c0-2.1-0.3-3.6-0.8-4.5c-0.5-0.9-1.3-1.4-2.4-1.4c-1.1,0-1.9,0.5-2.4,1.4c-0.5,0.9-0.8,2.4-0.8,4.5
		c0,2.1,0.3,3.6,0.8,4.6c0.5,0.9,1.3,1.4,2.4,1.4C163.8,127.1,164.6,126.6,165.1,125.7z M166.5,144.4l-3.7-2.1l18.2-31.4l3.7,2.1
		L166.5,144.4z M179.1,141c-1.4-1.6-2.1-4-2.1-7.1c0-3.1,0.7-5.4,2.1-7c1.4-1.6,3.3-2.4,5.7-2.4c2.5,0,4.4,0.8,5.8,2.4
		c1.4,1.6,2.1,4,2.1,7c0,3.1-0.7,5.5-2.1,7.1c-1.4,1.6-3.3,2.4-5.8,2.4S180.5,142.6,179.1,141z M187.3,138.5
		c0.5-0.9,0.8-2.4,0.8-4.6c0-2.1-0.3-3.6-0.8-4.5c-0.5-0.9-1.3-1.4-2.4-1.4c-1.1,0-1.9,0.5-2.4,1.4c-0.5,0.9-0.8,2.4-0.8,4.5
		c0,2.1,0.3,3.6,0.8,4.6c0.5,0.9,1.3,1.4,2.4,1.4C185.9,139.9,186.7,139.4,187.3,138.5z"/>
</g>
<g>
	<line class="st2" x1="88.3" y1="160.4" x2="232.8" y2="160.4"/>
	<polygon class="st1" points="160.5,168.8 151.2,160.6 169.9,160.6 	"/>
</g>
<g>
	<path class="st3" d="M105.4,194.7v-10.8h-4.2v-1.2h9.8v1.2h-4.2v10.8H105.4z"/>
	<path class="st3" d="M112.5,194.3c-0.6-0.4-1.1-0.9-1.4-1.5c-0.3-0.7-0.5-1.4-0.5-2.3c0-0.9,0.2-1.6,0.5-2.3
		c0.3-0.7,0.8-1.2,1.4-1.5c0.6-0.4,1.3-0.5,2.1-0.5s1.5,0.2,2.1,0.5c0.6,0.4,1.1,0.9,1.4,1.5c0.3,0.7,0.5,1.4,0.5,2.3
		c0,0.9-0.2,1.6-0.5,2.3c-0.3,0.7-0.8,1.2-1.4,1.5c-0.6,0.4-1.3,0.5-2.1,0.5S113.1,194.7,112.5,194.3z M116.5,192.9
		c0.4-0.5,0.7-1.3,0.7-2.4c0-1-0.2-1.8-0.7-2.3s-1.1-0.8-1.9-0.8s-1.4,0.3-1.9,0.8s-0.7,1.3-0.7,2.3c0,1,0.2,1.8,0.7,2.3
		c0.4,0.5,1.1,0.8,1.9,0.8S116,193.5,116.5,192.9z"/>
	<path class="st3" d="M125,193.7l-0.1,1.1c-0.3,0-0.5,0.1-0.8,0.1c-1,0-1.7-0.3-2.3-0.8c-0.5-0.5-0.8-1.2-0.8-2.2v-4.4h-1.6v-1.1
		h1.6v-2.5h1.4v2.5h2.3v1.1h-2.3v4.2c0,1.3,0.6,2,1.8,2C124.5,193.8,124.7,193.7,125,193.7z"/>
	<path class="st3" d="M132.1,187.1c0.5,0.5,0.8,1.4,0.8,2.5v5.2h-1.3v-1.4c-0.2,0.5-0.5,0.9-1,1.1c-0.4,0.3-1,0.4-1.5,0.4
		c-0.5,0-1-0.1-1.5-0.3s-0.8-0.5-1.1-0.9c-0.3-0.4-0.4-0.8-0.4-1.3c0-0.6,0.2-1.1,0.5-1.5s0.8-0.6,1.6-0.7c0.7-0.2,1.7-0.2,3-0.2
		h0.4v-0.6c0-0.7-0.1-1.2-0.4-1.5c-0.3-0.3-0.7-0.5-1.4-0.5c-1,0-1.9,0.3-2.8,0.9l-0.5-1c0.4-0.3,0.9-0.6,1.6-0.7
		c0.6-0.2,1.2-0.3,1.8-0.3C130.8,186.3,131.6,186.5,132.1,187.1z M130.9,193.1c0.4-0.5,0.7-1.1,0.7-1.8v-0.5h-0.3
		c-1,0-1.8,0-2.3,0.1c-0.5,0.1-0.9,0.2-1.1,0.4c-0.2,0.2-0.3,0.5-0.3,0.9c0,0.4,0.2,0.8,0.5,1.1c0.3,0.3,0.7,0.4,1.2,0.4
		C129.9,193.8,130.4,193.5,130.9,193.1z"/>
	<path class="st3" d="M135.4,194.7v-12h1.4v12H135.4z"/>
	<path class="st3" d="M143.9,182.8h4c1.9,0,3.4,0.5,4.4,1.6c1,1,1.6,2.5,1.6,4.4c0,1.9-0.5,3.4-1.6,4.4c-1,1-2.5,1.6-4.4,1.6h-4
		V182.8z M147.9,193.5c3.1,0,4.7-1.6,4.7-4.8c0-3.2-1.6-4.8-4.7-4.8h-2.5v9.6H147.9z"/>
	<path class="st3" d="M157.6,194.3c-0.6-0.4-1.1-0.9-1.4-1.5c-0.3-0.7-0.5-1.4-0.5-2.3c0-0.9,0.2-1.6,0.5-2.3
		c0.3-0.7,0.8-1.2,1.4-1.5c0.6-0.4,1.3-0.5,2.1-0.5s1.5,0.2,2.1,0.5c0.6,0.4,1.1,0.9,1.4,1.5c0.3,0.7,0.5,1.4,0.5,2.3
		c0,0.9-0.2,1.6-0.5,2.3c-0.3,0.7-0.8,1.2-1.4,1.5c-0.6,0.4-1.3,0.5-2.1,0.5S158.2,194.7,157.6,194.3z M161.6,192.9
		c0.4-0.5,0.7-1.3,0.7-2.4c0-1-0.2-1.8-0.7-2.3c-0.4-0.5-1.1-0.8-1.9-0.8s-1.4,0.3-1.9,0.8s-0.7,1.3-0.7,2.3c0,1,0.2,1.8,0.7,2.3
		c0.4,0.5,1.1,0.8,1.9,0.8S161.1,193.5,161.6,192.9z"/>
	<path class="st3" d="M172.8,189.5v5.2h-1.4v-5.1c0-0.8-0.2-1.3-0.5-1.7c-0.3-0.4-0.8-0.5-1.4-0.5c-0.8,0-1.4,0.2-1.8,0.7
		s-0.7,1.1-0.7,1.9v4.7h-1.4v-8.3h1.4v1.4c0.3-0.5,0.7-0.9,1.1-1.2c0.5-0.3,1-0.4,1.7-0.4C171.9,186.3,172.8,187.4,172.8,189.5z"/>
	<path class="st3" d="M181.1,187.1c0.5,0.5,0.8,1.4,0.8,2.5v5.2h-1.3v-1.4c-0.2,0.5-0.5,0.9-1,1.1c-0.4,0.3-1,0.4-1.5,0.4
		c-0.5,0-1-0.1-1.5-0.3c-0.4-0.2-0.8-0.5-1.1-0.9c-0.3-0.4-0.4-0.8-0.4-1.3c0-0.6,0.2-1.1,0.5-1.5s0.8-0.6,1.6-0.7
		c0.7-0.2,1.7-0.2,3-0.2h0.4v-0.6c0-0.7-0.1-1.2-0.4-1.5c-0.3-0.3-0.7-0.5-1.4-0.5c-1,0-1.9,0.3-2.8,0.9l-0.5-1
		c0.4-0.3,0.9-0.6,1.6-0.7c0.6-0.2,1.2-0.3,1.8-0.3C179.8,186.3,180.6,186.5,181.1,187.1z M179.9,193.1c0.4-0.5,0.7-1.1,0.7-1.8
		v-0.5h-0.3c-1,0-1.8,0-2.3,0.1c-0.5,0.1-0.9,0.2-1.1,0.4c-0.2,0.2-0.3,0.5-0.3,0.9c0,0.4,0.2,0.8,0.5,1.1c0.3,0.3,0.7,0.4,1.2,0.4
		C178.9,193.8,179.4,193.5,179.9,193.1z"/>
	<path class="st3" d="M188.8,193.7l-0.1,1.1c-0.3,0-0.5,0.1-0.8,0.1c-1,0-1.7-0.3-2.3-0.8c-0.5-0.5-0.8-1.2-0.8-2.2v-4.4h-1.6v-1.1
		h1.6v-2.5h1.4v2.5h2.3v1.1h-2.3v4.2c0,1.3,0.6,2,1.8,2C188.3,193.8,188.5,193.7,188.8,193.7z"/>
	<path class="st3" d="M190,182.9h1.7v1.5H190V182.9z M190.2,194.7v-8.3h1.4v8.3H190.2z"/>
	<path class="st3" d="M195.5,194.3c-0.6-0.4-1.1-0.9-1.4-1.5c-0.3-0.7-0.5-1.4-0.5-2.3c0-0.9,0.2-1.6,0.5-2.3
		c0.3-0.7,0.8-1.2,1.4-1.5s1.3-0.5,2.1-0.5s1.5,0.2,2.1,0.5s1.1,0.9,1.4,1.5c0.3,0.7,0.5,1.4,0.5,2.3c0,0.9-0.2,1.6-0.5,2.3
		c-0.3,0.7-0.8,1.2-1.4,1.5c-0.6,0.4-1.3,0.5-2.1,0.5S196.1,194.7,195.5,194.3z M199.4,192.9c0.4-0.5,0.7-1.3,0.7-2.4
		c0-1-0.2-1.8-0.7-2.3c-0.4-0.5-1.1-0.8-1.9-0.8s-1.4,0.3-1.9,0.8c-0.4,0.5-0.7,1.3-0.7,2.3c0,1,0.2,1.8,0.7,2.3
		c0.4,0.5,1.1,0.8,1.9,0.8C198.3,193.7,199,193.5,199.4,192.9z"/>
	<path class="st3" d="M210.7,189.5v5.2h-1.4v-5.1c0-0.8-0.2-1.3-0.5-1.7c-0.3-0.4-0.8-0.5-1.4-0.5c-0.8,0-1.4,0.2-1.8,0.7
		c-0.5,0.5-0.7,1.1-0.7,1.9v4.7h-1.4v-8.3h1.4v1.4c0.3-0.5,0.7-0.9,1.1-1.2c0.5-0.3,1-0.4,1.7-0.4
		C209.7,186.3,210.7,187.4,210.7,189.5z"/>
	<path class="st3" d="M212.7,193.8l0.5-1c0.4,0.4,0.9,0.6,1.4,0.8c0.5,0.2,1,0.2,1.6,0.2c0.6,0,1.1-0.1,1.4-0.3
		c0.3-0.2,0.5-0.5,0.5-0.9c0-0.3-0.1-0.6-0.3-0.8c-0.2-0.2-0.6-0.3-1.1-0.5l-1.4-0.3c-0.7-0.2-1.2-0.4-1.6-0.8s-0.6-0.9-0.6-1.4
		c0-0.7,0.3-1.3,0.9-1.8c0.6-0.5,1.3-0.7,2.3-0.7c0.6,0,1.1,0.1,1.6,0.3c0.5,0.2,1,0.5,1.3,0.8l-0.5,1c-0.8-0.6-1.6-1-2.5-1
		c-0.6,0-1,0.1-1.4,0.3c-0.3,0.2-0.5,0.5-0.5,0.9c0,0.3,0.1,0.6,0.3,0.8s0.5,0.3,1,0.5l1.4,0.3c0.8,0.2,1.3,0.5,1.7,0.8
		s0.6,0.8,0.6,1.4c0,0.7-0.3,1.3-0.9,1.7c-0.6,0.4-1.4,0.6-2.4,0.6C214.6,194.9,213.5,194.5,212.7,193.8z"/>
	<path class="st3" d="M140.6,215.7l-1.3-3.1H133l-1.3,3.1h-1.4l5.3-12h1.2l5.3,12H140.6z M133.5,211.5h5.3l-2.6-6.1L133.5,211.5z"/>
	<path class="st3" d="M155.5,210.5v5.2h-1.4v-5.1c0-0.8-0.1-1.3-0.4-1.7s-0.7-0.5-1.3-0.5c-0.7,0-1.2,0.2-1.6,0.7
		c-0.4,0.5-0.6,1.1-0.6,1.9v4.7h-1.4v-5.1c0-0.8-0.1-1.3-0.4-1.7s-0.7-0.5-1.3-0.5c-0.7,0-1.2,0.2-1.6,0.7c-0.4,0.5-0.6,1.1-0.6,1.9
		v4.7h-1.4v-8.3h1.4v1.3c0.2-0.5,0.6-0.9,1-1.1s1-0.4,1.5-0.4c1.3,0,2.1,0.5,2.5,1.6c0.2-0.5,0.6-0.9,1.1-1.2c0.5-0.3,1-0.4,1.7-0.4
		C154.6,207.3,155.5,208.4,155.5,210.5z"/>
	<path class="st3" d="M159.4,215.3c-0.6-0.4-1.1-0.9-1.4-1.5c-0.3-0.7-0.5-1.4-0.5-2.3c0-0.9,0.2-1.6,0.5-2.3
		c0.3-0.7,0.8-1.2,1.4-1.5c0.6-0.4,1.3-0.5,2.1-0.5c0.8,0,1.5,0.2,2.1,0.5s1.1,0.9,1.4,1.5c0.3,0.7,0.5,1.4,0.5,2.3
		c0,0.9-0.2,1.6-0.5,2.3c-0.3,0.7-0.8,1.2-1.4,1.5c-0.6,0.4-1.3,0.5-2.1,0.5C160.7,215.9,160,215.7,159.4,215.3z M163.4,213.9
		c0.4-0.5,0.7-1.3,0.7-2.4c0-1-0.2-1.8-0.7-2.3c-0.4-0.5-1.1-0.8-1.9-0.8c-0.8,0-1.4,0.3-1.9,0.8s-0.7,1.3-0.7,2.3
		c0,1,0.2,1.8,0.7,2.3c0.4,0.5,1.1,0.8,1.9,0.8S162.9,214.5,163.4,213.9z"/>
	<path class="st3" d="M174.4,207.5v8.3h-1.3v-1.4c-0.3,0.5-0.6,0.9-1.1,1.1c-0.5,0.3-1,0.4-1.6,0.4c-1,0-1.7-0.3-2.2-0.8
		c-0.5-0.5-0.7-1.4-0.7-2.4v-5.1h1.4v5.1c0,0.7,0.1,1.3,0.4,1.6c0.3,0.3,0.8,0.5,1.4,0.5c0.7,0,1.3-0.2,1.8-0.7
		c0.4-0.5,0.7-1.1,0.7-1.9v-4.7H174.4z"/>
	<path class="st3" d="M184.2,210.5v5.2h-1.4v-5.1c0-0.8-0.2-1.3-0.5-1.7c-0.3-0.4-0.8-0.5-1.4-0.5c-0.8,0-1.4,0.2-1.8,0.7
		s-0.7,1.1-0.7,1.9v4.7H177v-8.3h1.4v1.4c0.3-0.5,0.7-0.9,1.1-1.2c0.5-0.3,1-0.4,1.7-0.4C183.2,207.3,184.2,208.4,184.2,210.5z"/>
	<path class="st3" d="M191.1,214.7l-0.1,1.1c-0.3,0-0.5,0.1-0.8,0.1c-1,0-1.7-0.3-2.3-0.8c-0.5-0.5-0.8-1.2-0.8-2.2v-4.4h-1.6v-1.1
		h1.6v-2.5h1.4v2.5h2.3v1.1h-2.3v4.2c0,1.3,0.6,2,1.8,2C190.6,214.8,190.8,214.7,191.1,214.7z"/>
	<path class="st3" d="M152,235.7c-0.8-0.8-1.2-2-1.2-3.6v-7.3h1.4v7.4c0,1.2,0.3,2,0.9,2.6c0.6,0.6,1.4,0.9,2.5,0.9s1.9-0.3,2.5-0.9
		c0.6-0.6,0.9-1.5,0.9-2.6v-7.4h1.4v7.3c0,1.6-0.4,2.8-1.2,3.6c-0.8,0.8-2,1.2-3.5,1.2C154,236.9,152.9,236.5,152,235.7z"/>
	<path class="st3" d="M169.1,228.8c0.6,0.4,1,0.9,1.3,1.5c0.3,0.7,0.5,1.4,0.5,2.3s-0.2,1.6-0.5,2.3s-0.7,1.1-1.3,1.5
		c-0.5,0.4-1.2,0.5-1.9,0.5c-0.6,0-1.2-0.1-1.7-0.4c-0.5-0.3-0.8-0.7-1.1-1.2v4.6H163v-11.3h1.4v1.4c0.2-0.5,0.6-0.9,1.1-1.2
		c0.5-0.3,1-0.4,1.7-0.4C167.9,228.3,168.6,228.4,169.1,228.8z M168.8,234.9c0.4-0.5,0.7-1.3,0.7-2.3c0-1-0.2-1.8-0.7-2.3
		c-0.4-0.6-1.1-0.8-1.9-0.8s-1.4,0.3-1.9,0.8c-0.4,0.5-0.7,1.3-0.7,2.3c0,1,0.2,1.8,0.7,2.3c0.4,0.6,1.1,0.8,1.9,0.8
		S168.4,235.4,168.8,234.9z"/>
</g>
</svg>
