<?xml version="1.0" encoding="utf-8"?>
<!-- Generator: Adobe Illustrator 20.1.0, SVG Export Plug-In . SVG Version: 6.00 Build 0)  -->
<svg version="1.1" id="Layer_1" xmlns="http://www.w3.org/2000/svg" xmlns:xlink="http://www.w3.org/1999/xlink" x="0px" y="0px"
	 viewBox="0 0 321.3 321.3" style="enable-background:new 0 0 321.3 321.3;" xml:space="preserve">
<style type="text/css">
	.st0{fill:url(#SVGID_1_);}
	.st1{fill:#58595B;}
	.st2{fill:#58595B;stroke:#808285;stroke-miterlimit:10;}
	.st3{fill:#939598;}
</style>
<g>
	<linearGradient id="SVGID_1_" gradientUnits="userSpaceOnUse" x1="227.3038" y1="93.9706" x2="88.2459" y2="233.0285">
		<stop  offset="0" style="stop-color:#8C2332"/>
		<stop  offset="1" style="stop-color:#691B1C"/>
	</linearGradient>
	<path class="st0" d="M160.6,321.3L0,160.6L160.6,0l160.6,160.6L160.6,321.3z M42.4,160.6l118.2,118.2l118.2-118.2L160.6,42.4
		L42.4,160.6z"/>
</g>
<g>
	<path class="st1" d="M115.8,112.4h21.6v4.2l-14.1,26.8h-6l14.1-26.5h-15.5V112.4z"/>
	<path class="st1" d="M162,130.1c1,1.3,1.5,2.9,1.5,4.9c0,2.7-1,4.8-3,6.4s-4.7,2.4-8.1,2.4c-2.1,0-4.1-0.3-6-1
		c-1.9-0.6-3.5-1.5-4.8-2.6l1.9-4.1c2.7,2.1,5.6,3.2,8.7,3.2c2,0,3.4-0.4,4.4-1.2c1-0.8,1.5-2,1.5-3.5c0-1.6-0.5-2.7-1.5-3.5
		c-1-0.7-2.5-1.1-4.6-1.1H148v-4.5h3.3c4,0,6-1.5,6-4.5c0-1.4-0.4-2.5-1.3-3.3s-2.1-1.1-3.7-1.1c-1.4,0-2.8,0.3-4.2,0.8
		c-1.4,0.5-2.8,1.3-4.2,2.4l-1.9-4.1c1.2-1.1,2.8-2,4.7-2.6c1.9-0.6,3.9-1,5.9-1c3.1,0,5.5,0.7,7.3,2.2c1.8,1.5,2.7,3.5,2.7,6
		c0,1.7-0.5,3.2-1.3,4.5c-0.9,1.3-2.1,2.2-3.6,2.8C159.7,127.9,161.1,128.8,162,130.1z"/>
	<path class="st1" d="M170.2,128.5c-1.4-1.6-2.1-4-2.1-7.1c0-3.1,0.7-5.4,2.1-7c1.4-1.6,3.3-2.4,5.8-2.4s4.4,0.8,5.8,2.4
		c1.4,1.6,2.1,4,2.1,7c0,3.1-0.7,5.5-2.1,7.1c-1.4,1.6-3.3,2.4-5.8,2.4S171.6,130.1,170.2,128.5z M178.4,126
		c0.5-0.9,0.8-2.4,0.8-4.6c0-2.1-0.3-3.6-0.8-4.5c-0.5-0.9-1.3-1.4-2.4-1.4c-1.1,0-1.9,0.5-2.4,1.4c-0.5,0.9-0.8,2.4-0.8,4.5
		c0,2.1,0.3,3.6,0.8,4.6c0.5,0.9,1.3,1.4,2.4,1.4C177.1,127.3,177.9,126.9,178.4,126z M179.8,144.7l-3.7-2.1l18.2-31.4l3.7,2.1
		L179.8,144.7z M192.4,141.3c-1.4-1.6-2.1-4-2.1-7.1c0-3.1,0.7-5.4,2.1-7c1.4-1.6,3.3-2.4,5.7-2.4c2.5,0,4.4,0.8,5.8,2.4
		c1.4,1.6,2.1,4,2.1,7c0,3.1-0.7,5.5-2.1,7.1c-1.4,1.6-3.3,2.4-5.8,2.4S193.8,142.9,192.4,141.3z M200.6,138.8
		c0.5-0.9,0.8-2.4,0.8-4.6c0-2.1-0.3-3.6-0.8-4.5c-0.5-0.9-1.3-1.4-2.4-1.4c-1.1,0-1.9,0.5-2.4,1.4c-0.5,0.9-0.8,2.4-0.8,4.5
		c0,2.1,0.3,3.6,0.8,4.6c0.5,0.9,1.3,1.4,2.4,1.4C199.2,140.2,200,139.7,200.6,138.8z"/>
</g>
<g>
	<line class="st2" x1="88.4" y1="160.6" x2="232.9" y2="160.6"/>
	<polygon class="st1" points="160.6,169.1 151.3,160.9 170,160.9 	"/>
</g>
<g>
	<path class="st3" d="M105.5,195v-10.8h-4.2V183h9.8v1.2h-4.2V195H105.5z"/>
	<path class="st3" d="M112.6,194.6c-0.6-0.4-1.1-0.9-1.4-1.5c-0.3-0.7-0.5-1.4-0.5-2.3s0.2-1.6,0.5-2.3c0.3-0.7,0.8-1.2,1.4-1.5
		c0.6-0.4,1.3-0.5,2.1-0.5s1.5,0.2,2.1,0.5c0.6,0.4,1.1,0.9,1.4,1.5c0.3,0.7,0.5,1.4,0.5,2.3s-0.2,1.6-0.5,2.3
		c-0.3,0.7-0.8,1.2-1.4,1.5c-0.6,0.4-1.3,0.5-2.1,0.5S113.2,195,112.6,194.6z M116.6,193.2c0.4-0.5,0.7-1.3,0.7-2.4
		c0-1-0.2-1.8-0.7-2.3c-0.4-0.5-1.1-0.8-1.9-0.8s-1.4,0.3-1.9,0.8c-0.4,0.5-0.7,1.3-0.7,2.3c0,1,0.2,1.8,0.7,2.3
		c0.4,0.5,1.1,0.8,1.9,0.8S116.1,193.7,116.6,193.2z"/>
	<path class="st3" d="M125.1,194l-0.1,1.1c-0.3,0-0.5,0.1-0.8,0.1c-1,0-1.7-0.3-2.3-0.8c-0.5-0.5-0.8-1.2-0.8-2.2v-4.4h-1.6v-1.1
		h1.6v-2.5h1.4v2.5h2.3v1.1h-2.3v4.2c0,1.3,0.6,2,1.8,2C124.6,194,124.8,194,125.1,194z"/>
	<path class="st3" d="M132.2,187.3c0.5,0.5,0.8,1.4,0.8,2.5v5.2h-1.3v-1.4c-0.2,0.5-0.5,0.9-1,1.1s-1,0.4-1.5,0.4
		c-0.5,0-1-0.1-1.5-0.3c-0.4-0.2-0.8-0.5-1.1-0.9c-0.3-0.4-0.4-0.8-0.4-1.3c0-0.6,0.2-1.1,0.5-1.5s0.8-0.6,1.6-0.7
		c0.7-0.2,1.7-0.2,3-0.2h0.4v-0.6c0-0.7-0.1-1.2-0.4-1.5c-0.3-0.3-0.7-0.5-1.4-0.5c-1,0-1.9,0.3-2.8,0.9l-0.5-1
		c0.4-0.3,0.9-0.6,1.6-0.7c0.6-0.2,1.2-0.3,1.8-0.3C130.9,186.5,131.7,186.8,132.2,187.3z M131,193.4c0.4-0.5,0.7-1.1,0.7-1.8v-0.5
		h-0.3c-1,0-1.8,0-2.3,0.1c-0.5,0.1-0.9,0.2-1.1,0.4c-0.2,0.2-0.3,0.5-0.3,0.9c0,0.4,0.2,0.8,0.5,1.1c0.3,0.3,0.7,0.4,1.2,0.4
		C130,194,130.5,193.8,131,193.4z"/>
	<path class="st3" d="M135.5,195v-12h1.4v12H135.5z"/>
	<path class="st3" d="M144,183h4c1.9,0,3.4,0.5,4.4,1.6c1,1,1.6,2.5,1.6,4.4s-0.5,3.4-1.6,4.4c-1,1-2.5,1.6-4.4,1.6h-4V183z
		 M147.9,193.8c3.1,0,4.7-1.6,4.7-4.8c0-3.2-1.6-4.8-4.7-4.8h-2.5v9.6H147.9z"/>
	<path class="st3" d="M157.7,194.6c-0.6-0.4-1.1-0.9-1.4-1.5c-0.3-0.7-0.5-1.4-0.5-2.3s0.2-1.6,0.5-2.3c0.3-0.7,0.8-1.2,1.4-1.5
		c0.6-0.4,1.3-0.5,2.1-0.5s1.5,0.2,2.1,0.5c0.6,0.4,1.1,0.9,1.4,1.5c0.3,0.7,0.5,1.4,0.5,2.3s-0.2,1.6-0.5,2.3
		c-0.3,0.7-0.8,1.2-1.4,1.5c-0.6,0.4-1.3,0.5-2.1,0.5S158.3,195,157.7,194.6z M161.7,193.2c0.4-0.5,0.7-1.3,0.7-2.4
		c0-1-0.2-1.8-0.7-2.3c-0.4-0.5-1.1-0.8-1.9-0.8s-1.4,0.3-1.9,0.8c-0.4,0.5-0.7,1.3-0.7,2.3c0,1,0.2,1.8,0.7,2.3
		c0.4,0.5,1.1,0.8,1.9,0.8S161.2,193.7,161.7,193.2z"/>
	<path class="st3" d="M172.9,189.8v5.2h-1.4v-5.1c0-0.8-0.2-1.3-0.5-1.7c-0.3-0.4-0.8-0.5-1.4-0.5c-0.8,0-1.4,0.2-1.8,0.7
		c-0.5,0.5-0.7,1.1-0.7,1.9v4.7h-1.4v-8.3h1.4v1.4c0.3-0.5,0.7-0.9,1.1-1.2c0.5-0.3,1-0.4,1.7-0.4
		C171.9,186.5,172.9,187.6,172.9,189.8z"/>
	<path class="st3" d="M181.2,187.3c0.5,0.5,0.8,1.4,0.8,2.5v5.2h-1.3v-1.4c-0.2,0.5-0.5,0.9-1,1.1s-1,0.4-1.5,0.4
		c-0.5,0-1-0.1-1.5-0.3c-0.4-0.2-0.8-0.5-1.1-0.9c-0.3-0.4-0.4-0.8-0.4-1.3c0-0.6,0.2-1.1,0.5-1.5s0.8-0.6,1.6-0.7
		c0.7-0.2,1.7-0.2,3-0.2h0.4v-0.6c0-0.7-0.1-1.2-0.4-1.5c-0.3-0.3-0.7-0.5-1.4-0.5c-1,0-1.9,0.3-2.8,0.9l-0.5-1
		c0.4-0.3,0.9-0.6,1.6-0.7c0.6-0.2,1.2-0.3,1.8-0.3C179.9,186.5,180.7,186.8,181.2,187.3z M179.9,193.4c0.4-0.5,0.7-1.1,0.7-1.8
		v-0.5h-0.3c-1,0-1.8,0-2.3,0.1c-0.5,0.1-0.9,0.2-1.1,0.4c-0.2,0.2-0.3,0.5-0.3,0.9c0,0.4,0.2,0.8,0.5,1.1c0.3,0.3,0.7,0.4,1.2,0.4
		C179,194,179.5,193.8,179.9,193.4z"/>
	<path class="st3" d="M188.8,194l-0.1,1.1c-0.3,0-0.5,0.1-0.8,0.1c-1,0-1.7-0.3-2.3-0.8c-0.5-0.5-0.8-1.2-0.8-2.2v-4.4h-1.6v-1.1
		h1.6v-2.5h1.4v2.5h2.3v1.1h-2.3v4.2c0,1.3,0.6,2,1.8,2C188.3,194,188.6,194,188.8,194z"/>
	<path class="st3" d="M190.1,183.1h1.7v1.5h-1.7V183.1z M190.2,195v-8.3h1.4v8.3H190.2z"/>
	<path class="st3" d="M195.6,194.6c-0.6-0.4-1.1-0.9-1.4-1.5c-0.3-0.7-0.5-1.4-0.5-2.3s0.2-1.6,0.5-2.3c0.3-0.7,0.8-1.2,1.4-1.5
		c0.6-0.4,1.3-0.5,2.1-0.5s1.5,0.2,2.1,0.5c0.6,0.4,1.1,0.9,1.4,1.5c0.3,0.7,0.5,1.4,0.5,2.3s-0.2,1.6-0.5,2.3
		c-0.3,0.7-0.8,1.2-1.4,1.5c-0.6,0.4-1.3,0.5-2.1,0.5S196.1,195,195.6,194.6z M199.5,193.2c0.4-0.5,0.7-1.3,0.7-2.4
		c0-1-0.2-1.8-0.7-2.3c-0.4-0.5-1.1-0.8-1.9-0.8s-1.4,0.3-1.9,0.8c-0.4,0.5-0.7,1.3-0.7,2.3c0,1,0.2,1.8,0.7,2.3
		c0.4,0.5,1.1,0.8,1.9,0.8S199.1,193.7,199.5,193.2z"/>
	<path class="st3" d="M210.8,189.8v5.2h-1.4v-5.1c0-0.8-0.2-1.3-0.5-1.7c-0.3-0.4-0.8-0.5-1.4-0.5c-0.8,0-1.4,0.2-1.8,0.7
		c-0.5,0.5-0.7,1.1-0.7,1.9v4.7h-1.4v-8.3h1.4v1.4c0.3-0.5,0.7-0.9,1.1-1.2c0.5-0.3,1-0.4,1.7-0.4
		C209.8,186.5,210.8,187.6,210.8,189.8z"/>
	<path class="st3" d="M212.8,194.1l0.5-1c0.4,0.4,0.9,0.6,1.4,0.8c0.5,0.2,1,0.2,1.6,0.2c0.6,0,1.1-0.1,1.4-0.3
		c0.3-0.2,0.5-0.5,0.5-0.9c0-0.3-0.1-0.6-0.3-0.8c-0.2-0.2-0.6-0.3-1.1-0.5l-1.4-0.3c-0.7-0.2-1.2-0.4-1.6-0.8
		c-0.4-0.4-0.6-0.9-0.6-1.4c0-0.7,0.3-1.3,0.9-1.8s1.3-0.7,2.3-0.7c0.6,0,1.1,0.1,1.6,0.3c0.5,0.2,1,0.5,1.3,0.8l-0.5,1
		c-0.8-0.6-1.6-1-2.5-1c-0.6,0-1,0.1-1.4,0.3c-0.3,0.2-0.5,0.5-0.5,0.9c0,0.3,0.1,0.6,0.3,0.8s0.5,0.3,1,0.5l1.4,0.3
		c0.8,0.2,1.3,0.5,1.7,0.8s0.6,0.8,0.6,1.4c0,0.7-0.3,1.3-0.9,1.7c-0.6,0.4-1.4,0.6-2.4,0.6C214.7,195.1,213.6,194.8,212.8,194.1z"
		/>
	<path class="st3" d="M152.1,214.9c-0.8-0.8-1.2-2-1.2-3.6V204h1.4v7.4c0,1.2,0.3,2,0.9,2.6c0.6,0.6,1.4,0.9,2.5,0.9
		s1.9-0.3,2.5-0.9c0.6-0.6,0.9-1.5,0.9-2.6V204h1.4v7.3c0,1.6-0.4,2.8-1.2,3.6c-0.8,0.8-2,1.2-3.5,1.2
		C154.1,216.2,152.9,215.7,152.1,214.9z"/>
	<path class="st3" d="M169.2,208.1c0.6,0.4,1,0.9,1.3,1.5c0.3,0.7,0.5,1.4,0.5,2.3s-0.2,1.6-0.5,2.3c-0.3,0.6-0.7,1.1-1.3,1.5
		c-0.5,0.4-1.2,0.5-1.9,0.5c-0.6,0-1.2-0.1-1.7-0.4c-0.5-0.3-0.8-0.7-1.1-1.2v4.6h-1.4v-11.3h1.4v1.4c0.2-0.5,0.6-0.9,1.1-1.2
		c0.5-0.3,1-0.4,1.7-0.4C168,207.5,168.6,207.7,169.2,208.1z M168.9,214.2c0.4-0.5,0.7-1.3,0.7-2.3c0-1-0.2-1.8-0.7-2.3
		s-1.1-0.8-1.9-0.8s-1.4,0.3-1.9,0.8c-0.4,0.5-0.7,1.3-0.7,2.3c0,1,0.2,1.8,0.7,2.3c0.4,0.5,1.1,0.8,1.9,0.8
		S168.4,214.7,168.9,214.2z"/>
</g>
</svg>
