<?xml version="1.0" standalone="no"?>
<!DOCTYPE svg PUBLIC "-//W3C//DTD SVG 20010904//EN"
 "http://www.w3.org/TR/2001/REC-SVG-20010904/DTD/svg10.dtd">
<svg version="1.0" xmlns="http://www.w3.org/2000/svg"
 width="16.000000pt" height="16.000000pt" viewBox="0 0 16.000000 16.000000"
 preserveAspectRatio="xMidYMid meet">
<metadata>
Created by potrace 1.11, written by Peter Selinger 2001-2013
</metadata>
<g transform="translate(0.000000,16.000000) scale(0.002286,-0.002286)"
fill="#000000" stroke="none">
<path d="M0 3500 l0 -3500 3500 0 3500 0 0 3500 0 3500 -3500 0 -3500 0 0
-3500z m6390 0 l0 -2890 -2890 0 -2890 0 0 2890 0 2890 2890 0 2890 0 0 -2890z"/>
<path d="M1854 5871 c-5 -4 -58 -29 -119 -56 -60 -26 -139 -61 -175 -78 -36
-16 -99 -44 -140 -62 -103 -45 -169 -74 -207 -93 l-33 -17 0 -1577 0 -1578 28
-1 c30 -1 628 -1 653 0 12 1 15 16 14 86 0 47 2 85 6 85 4 0 17 -15 28 -34 49
-79 146 -144 262 -176 65 -17 96 -20 205 -16 71 3 144 10 162 15 18 5 35 10
37 10 16 -1 77 15 123 32 352 128 594 453 657 884 16 111 20 175 20 340 0 266
-18 388 -82 575 -92 269 -273 489 -503 613 -198 107 -482 131 -673 56 -68 -27
-160 -92 -198 -139 -18 -22 -35 -40 -38 -40 -3 0 -6 264 -6 586 0 322 -3 587
-6 590 -3 2 -10 0 -15 -5z m548 -1648 c77 -30 132 -76 180 -149 52 -80 62
-106 87 -227 26 -122 22 -339 -8 -452 -42 -156 -122 -277 -217 -325 -160 -79
-406 -48 -529 67 l-41 38 1 457 0 457 34 35 c53 55 141 96 256 119 48 10 192
-2 237 -20z"/>
<path d="M3608 4847 c-6 -40 -1 -1671 6 -1722 34 -250 97 -393 233 -531 183
-185 449 -266 755 -230 115 14 257 60 315 103 17 12 35 23 39 23 10 0 89 66
129 108 l35 37 0 -115 0 -115 338 2 c185 1 342 2 348 2 7 1 10 367 10 1229 l1
1227 -336 -2 c-185 -1 -341 -2 -348 -2 -9 -1 -12 -158 -13 -668 0 -368 -2
-688 -4 -713 -18 -228 -97 -364 -244 -421 -48 -19 -76 -23 -182 -22 -116 0
-129 2 -182 28 -108 52 -163 145 -194 330 -4 22 -8 342 -10 710 -2 369 -3 691
-4 716 l0 46 -344 1 -344 0 -4 -21z"/>
<path d="M1182 1378 l3 -313 2315 0 2315 0 1 313 1 312 -2319 0 -2318 0 2
-312z"/>
</g>
</svg>
