<?xml version="1.0" encoding="utf-8"?>
<!-- Generator: Adobe Illustrator 20.1.0, SVG Export Plug-In . SVG Version: 6.00 Build 0)  -->
<svg version="1.1" id="Layer_1" xmlns="http://www.w3.org/2000/svg" xmlns:xlink="http://www.w3.org/1999/xlink" x="0px" y="0px"
	 viewBox="0 0 1200 1200" style="enable-background:new 0 0 1200 1200;" xml:space="preserve">
<style type="text/css">
	.st0{fill:#FFFFFF;}
</style>
<g>
	
		<rect x="184.1" y="183.7" transform="matrix(0.7071 -0.7071 0.7071 0.7071 -248.2498 599.9179)" class="st0" width="831.9" height="831.9"/>
	<path d="M600,164.7L1035,599.6L600,1034.5L165.1,599.6L600,164.7 M600,11.4L11.8,599.6L600,1187.9l588.3-588.3L600,11.4L600,11.4z"
		/>
</g>
<g>
	<path d="M465.7,404.1H594c20.4,0,39.5,1.5,57.3,4.5c17.8,3,33.3,8.1,46.5,15.3c13.2,7.2,23.6,17.1,31.2,29.7
		c7.6,12.6,11.4,28.5,11.4,47.7c0,8.4-1.3,16.9-3.9,25.5c-2.6,8.6-6.6,16.8-12,24.6c-5.4,7.8-12.3,14.7-20.7,20.7
		c-8.4,6-18.2,10.4-29.4,13.2v2.4c27.6,5.6,48.3,15.7,62.1,30.3c13.8,14.6,20.7,34.9,20.7,60.9c0,20-3.9,37.3-11.7,51.9
		c-7.8,14.6-18.6,26.6-32.4,36c-13.8,9.4-29.9,16.3-48.3,20.7c-18.4,4.4-38,6.6-58.8,6.6H465.7V404.1z M591.6,557.6
		c16.8,0,29-3.8,36.6-11.4c7.6-7.6,11.4-17.4,11.4-29.4c0-12-3.8-20.6-11.4-25.8c-7.6-5.2-19.8-7.8-36.6-7.8h-22.8v74.4H591.6z
		 M598.8,714.7c20.4,0,35.1-3.8,44.1-11.4c9-7.6,13.5-18.6,13.5-33c0-14.4-4.5-24.8-13.5-31.2c-9-6.4-23.7-9.6-44.1-9.6h-30v85.2
		H598.8z"/>
</g>
</svg>
