<?xml version="1.0" encoding="utf-8"?>
<!-- Generator: Adobe Illustrator 20.1.0, SVG Export Plug-In . SVG Version: 6.00 Build 0)  -->
<svg version="1.1" id="Layer_2" xmlns="http://www.w3.org/2000/svg" xmlns:xlink="http://www.w3.org/1999/xlink" x="0px" y="0px"
	 viewBox="0 0 291.7 291.7" style="enable-background:new 0 0 291.7 291.7;" xml:space="preserve">
<g>
	<path d="M155.4,169.1c2.1,1.7,4.3,2.9,6.6,3.6c2.2,0.7,4.6,1.1,7,1.1c7.2,0,12.6-2.3,16.4-6.9v5.5v0.1h17v-60h-17v31.3
		c0,4.6-0.8,8-2.5,10.2c-1.7,2.2-4.3,3.3-7.9,3.3c-3.6,0-6.1-1.1-7.5-3.3c-1.4-2.1-2.1-5.6-2.1-10.4v-31.2h-17v39
		c0,4.1,0.6,7.6,1.9,10.7C151.6,165.1,153.3,167.4,155.4,169.1z"/>
	<path d="M282.3,136.5L155.2,9.4L145.8,0l-9.4,9.4L9.4,136.5L0,145.8l9.4,9.4l127.1,127.1l9.4,9.4l9.4-9.4l127.1-127.1l9.4-9.4
		L282.3,136.5z M145.8,266.3L25.4,145.8L145.8,25.4l120.4,120.4L145.8,266.3z"/>
	<polygon points="105.5,205.3 186.1,205.3 201.4,190 90.2,190 	"/>
	<path d="M106.1,167.9c2.3,4,6,6,11,6c8,0,14.3-2.8,18.9-8.3c4.6-5.4,6.9-13.2,6.9-23.2c0-9.5-2.3-17.1-7-22.8
		c-4.7-5.7-10.6-8.6-17.8-8.6c-5.3,0-9.3,2-12,5.8V85.7l-17,17v69.8h17V167.9z M106.1,131.4c2.2-2.6,5.2-3.9,9.2-3.9
		c3.4,0,6.1,1.3,7.9,3.9c1.9,2.5,2.8,6.2,2.8,11c0,4.7-1,8.3-2.8,11c-1.8,2.7-4.5,4-7.9,4c-4.2,0-7.2-1.2-9.2-3.7V131.4z"/>
</g>
</svg>
