<?xml version="1.0" encoding="utf-8"?>
<!-- Generator: Adobe Illustrator 20.1.0, SVG Export Plug-In . SVG Version: 6.00 Build 0)  -->
<svg version="1.1" id="Layer_1" xmlns="http://www.w3.org/2000/svg" xmlns:xlink="http://www.w3.org/1999/xlink" x="0px" y="0px"
	 viewBox="0 0 305 438" style="enable-background:new 0 0 305 438;" xml:space="preserve">
<style type="text/css">
	.st0{display:none;}
	.st1{fill:#353535;stroke:#231F20;stroke-width:2;stroke-miterlimit:10;}
	.st2{fill:none;stroke:#231F20;stroke-width:2;stroke-linecap:round;stroke-miterlimit:10;}
	.st3{fill:#FFFFFF;}
	.st4{fill:#FFCA9E;stroke:#231F20;stroke-width:2;stroke-miterlimit:10;}
	.st5{fill:#593519;stroke:#231F20;stroke-width:2;stroke-miterlimit:10;}
	.st6{fill:none;stroke:#231F20;stroke-width:2;stroke-miterlimit:10;}
	.st7{fill:#27689E;}
	.st8{fill:#D8BA8D;}
	.st9{fill:#C10C0C;stroke:#231F20;stroke-width:2;stroke-miterlimit:10;}
	.st10{fill:none;}
	.st11{fill:#050505;}
	.st12{fill:#231F20;}
</style>
<g id="Layer_1_1_" class="st0">
	
		<image style="display:inline;overflow:visible;enable-background:new    ;" width="500" height="500" xlink:href="../Downloads/familyguy.png"  transform="matrix(1 0 0 1 -90.4545 -62)">
	</image>
</g>
<g id="Layer_11">
	<path class="st1" d="M31,438c9.5-32.5,5.5-63.5,10.5-78.5s10.3-29.3,53.9-47.9s77.4-20.9,85.6-20.6s18.7-1.5,26.3,3s6,8,6.3,10
		c36.3,10.5,61.8,31.5,70.3,63s10.5,51,10.5,61c0,5-1.8,10-1.8,10H31z"/>
	<line class="st2" x1="212.8" y1="421" x2="217.2" y2="438"/>
	<path class="st2" d="M62.8,382c0,0-3.7,39.5-1.7,56"/>
	<path class="st2" d="M97.5,313.2c0,0,13.5,22.8,46.2,24.8s64.2-20.8,69.9-36"/>
	<path class="st3" d="M155,396.5c-0.8-13.6-0.7-47.6,0-63c0-0.8-0.6-1.5-1.4-1.6c-0.8-0.1-1.5,0.6-1.6,1.4
		c-0.7,15.5-0.8,49.7,0,63.4c0,0.6,0.4,1.1,1,1.3l0.4,4l1.3-0.1l-0.4-4C154.8,397.6,155,397.1,155,396.5z"/>
</g>
<g id="Layer_4">
	<path class="st4" d="M76.7,100c-1,33.7,0,51-3.3,60c-3.1,8.3-14.3,31-12,58s30.3,73.7,30.3,73.7l24,26.3c0,0,10.3,7.7,32.7,6.3
		c22.3-1.3,33-8,40.7-13.3s10-14,10-14v-31.7l20-41.7l3.3-22c0,0-6-7.3,2.7-7.3s19-9,20.3-18.7s1-22.6-8.8-21.7
		c-5,0.5-11.8,13.7-11.8,13.7l1.5,25l-6.5-11l5-28.7L205,104.7L76.7,100z"/>
</g>
<g id="Layer_6">
	<path class="st2" d="M100.5,223.2c-2.2,5.3-10.2,12.8,0,14.5s37.9,0.7,45.8-1.2c6.2-1.5,12.1-4.8,13.3-5.7"/>
	<path class="st2" d="M155.7,226.8c6,4,8.5,9.5,8.8,11.9"/>
	<path class="st2" d="M105.7,238.3c-4.7,5.4-1.2,12.4,2.5,15.4"/>
</g>
<g id="Layer_5">
	<path class="st2" d="M118.5,147.5c-13,28.2-20.4,37.9-17.2,54.4c1.5,5.1,9.7,7.9,21.7,7.1s20.8-1,13-15.8"/>
</g>
<g id="Layer_7">
	<path class="st5" d="M241.3,185.2c-0.1,0.1-0.2,0.2-0.3,0.3c-7.8,8.4-14,8.5-14,8.5l-1.7-27.6c6.3-10.2,10.5-15.6,16.9-10.6
		c1.2,0.9,2.2,2.7,3,5c0-0.4,0.1-0.8,0.1-1.2c0.6-7.7,0.7-17.7-3.8-26.2c-6.6-12.5-19-22.6-28.9-23.5c-4-0.4-11.7-2.8-13.8-0.1
		c5.5,4.3,11.7,28.5,12.4,33.6c0.7,4.9,5.1,19.8,1.6,30c-2.7,7.7-7.4,14.8-10.4,25.6c-0.6,3.2-2.2,5.7-5,7.5
		c-9,5.7-29.2,3.7-56.8-5.8l-0.7-0.2l-0.4,0.5c-0.2,0.2-0.4,0.4-0.7,0.7c0.3,6.5-6.9,6.7-15.9,7.3c-12,0.8-16.7-2.2-18.1-2.9
		c-1.4-0.8-3.4-3.1-3.5-4.2c-0.1,0-0.3,0.1-0.4,0.1c-12.4,4.7-22.4,5.3-29.7,1.6c-5.4-3.6-6-7.1-7-9.5c-1-2.4-0.3-3.4,0.3-8.8
		c-7.1,7.9-8.6,33.9-6.2,44.4s7,17,12.2,28.6c4.8,10.7,9.7,21.8,12.2,28.4c4.8,13,12.3,26.2,16.4,28.8l1.5,1v-4.9
		c3.1,3.3,9.3,9.6,12,10.4l1.3,0.4V321c0-0.7,0.8-1.8,1.7-2.9v3.9h1c8.6,0,16.6-1,22.2-2.8l-1.6,2.9l1.8-0.1c0.4,0,9.1-0.3,14.3-2.4
		c7-2.7,13.3-8.9,18.9-14.4c3.4-3.3,6.5-6.3,9.2-8.1c6.4-4.1,20.6-16.4,29.8-34.3c9.3-7.8,18.7-17.2,23.4-36
		S240.2,193.7,241.3,185.2z M151.8,274.2c-7.2,11.8-20.6,8.8-21.3-2c-6.4,0.5-10.9,0.2-14.9-0.5c1,10-14,16.2-17.5-2.8
		c-16-1.5-14-21.8-16-40.2c12.8-0.5,22.5-13.8,36.8-13.8s35.2,13.8,58.2,13.8C182.5,250.5,176.2,270,151.8,274.2z"/>
	<path class="st2" d="M231.5,180.9c0.2-6.9,1.8-12.8,6.1-14.9"/>
	<path class="st6" d="M227,194.1c-0.3,30-9.2,57.6-19.7,75.7"/>
</g>
<g id="Layer_12">
	<path class="st7" d="M73.3,87.3c0,0,9.4-26.6,15.5-34.7s14.2-15.6,27-22.9c12.6-7.2,18.6-6.8,18.6-6.8l11.4,0.2l13.9,2.7l10.3,5.4
		l8,5.9l6.2,6.1l5,6.3l4.4,6.8l3.4,6.4l7.3,17.8l3.9,19.3l1.7,16.6l-13.6-6.7l-35.7-10.3l-27.1-5.8l-30.4-4.6L73.3,87.3z"/>
	<polygon class="st8" points="189,47.8 168.5,30.3 169.6,29.1 181.1,34.2 193.7,39.9 209.9,48.8 223.8,58.9 235.4,72.1 239.1,85 
		241.1,96.4 242,106.2 242.2,116.3 241.7,125.3 240.7,134 231.8,128.8 209.9,116.6 206,84.1 195,55.8 	"/>
</g>
<g id="Layer_2">
	<path class="st6" d="M147.5,23.3c0,0,20.2,0.5,65.3,27.2c27.7,16.4,33.2,48.2,27.9,83.5C210,116.7,202,103.3,73.3,87.3
		C80.1,60.9,90.5,44.5,117,29s85.8-6.8,93,87.7"/>
</g>
<g id="Layer_3">
	<path class="st9" d="M200.3,112.6c-43.6,18.1-71.6,14.7-114.1,2.8c-16.7-5.2-41.7,0.1-60.2,3.8c-32,6.4-19.3-7.5,0-16.5
		c13-6.1,32-13.3,47.3-15.3S171.4,97.8,200.3,112.6z"/>
	<polygon class="st10" points="193.3,131.5 236.5,157.5 228.5,166 189,145 	"/>
</g>
<g id="Layer_9">
	<polygon class="st3" points="108.2,164.1 60.7,166.7 60.7,132.2 117,134.1 	"/>
	<polygon class="st3" points="138.9,131.5 132.8,139.2 141.8,166.7 190.5,167.8 189,132.2 	"/>
</g>
<g id="Layer_10">
	<polygon class="st4" points="61,131 110.8,131 115.8,142.3 61,142.3 	"/>
	<polygon class="st4" points="141.4,131 189.2,131 189.2,142.3 134.4,142.3 	"/>
	<circle class="st11" cx="90" cy="150.8" r="3.8"/>
	<circle class="st11" cx="161" cy="150.8" r="3.8"/>
</g>
<path class="st8" d="M184.2,43.1"/>
<path class="st8" d="M181.1,34.2"/>
<g id="Layer_8">
	<path class="st12" d="M232.3,156.3c-7.8-5-39.5-23.8-39.5-23.8v-0.1c0-1.9-1.5-3.4-3.4-3.4h-53c-0.5,0-1,0.1-1.5,0.3l0,0l0,0
		c-0.4,0.2-0.8,0.5-1.1,0.9c-0.2,0.3-0.5,0.7-0.8,1.2c-5,5.9-10.2,6.5-16.3,0.5c-0.9-0.9-1.1-2-1.7-2.5c-1.1-0.9-2.4-1.5-3.9-1.5
		H60.8c-1.9,0-3.4,1.5-3.4,3.4v35.1c0,1.9,1.5,3.4,3.4,3.4h45.9c1.4,0,2.6-0.8,3.1-2.1l7-17.1c0.6-1.3,2.6-4.5,7.7-4.5
		c4.2,0,6.5,4.4,7.5,7.2c0.2,0.8,0.5,1.7,0.7,2.5l0,0l0,0c2,6,4.9,11,6.5,13.5c0.6,1,1.7,1.6,2.9,1.6h47.4c1.9,0,3.4-1.5,3.4-3.4
		v-21.8l33.4,19.1C226.3,164.7,228.2,158.1,232.3,156.3z M111.6,145.6l-5.6,13.8c-0.9,2.2-3,3.6-5.4,3.6H68.7c-2.5,0-4.5-2-4.5-4.5
		v-20.3c0-2,1.6-3.5,3.5-3.5h42.9l0.7,1.6C112.7,139.3,112.8,142.7,111.6,145.6z M186.1,159.4c0,2.6-2.1,4.6-4.6,4.6h-33.9
		c-2.2,0-4.3-1.2-5.3-3.2c-2.2-4.3-4.7-10.5-4.7-16.6c0-1.3,0.1-2.5,0.1-3.5c0.2-2.8,2.6-4.9,5.4-4.9h39.4c2,0,3.6,1.6,3.6,3.6
		V159.4z"/>
</g>
<path class="st3" d="M143,373.6c-0.2-15.6-0.3-31.7,0-40.2c0-0.8-0.6-1.5-1.4-1.6c-0.8-0.1-1.5,0.6-1.6,1.4
	c-0.4,8.5-0.2,24.7,0,40.3c0.1,13.3,0.3,25.9,0,32.3c0,0.7,0.4,1.2,1,1.4v3.9h1.3v-4.1c0.4-0.3,0.7-0.7,0.7-1.2
	C143.2,399.6,143.1,387,143,373.6z"/>
<path class="st2" d="M174.2,228.6c0,0,6.7,0.2,9.1,0"/>
<path class="st2" d="M84.5,228.5c0,0-6.2,0.5-9.9,0"/>
</svg>
